<?xml version="1.0" standalone="no"?>
<!DOCTYPE svg PUBLIC "-//W3C//DTD SVG 1.1//EN"
	"http://www.w3.org/Graphics/SVG/1.1/DTD/svg11.dtd">
<svg xmlns="http://www.w3.org/2000/svg" version="1.1"
	xmlns:xlink="http://www.w3.org/1999/xlink"
	color="black"
	width="797.58px" height="294.67px">
<style type="text/css">
.fill {fill: currentColor}
.stroke {stroke: currentColor; fill: none}
text{white-space:pre; fill:currentColor}
</style>
<title>./KAnhC30-11-6-9-5-7-7-11-8-10-12-8-9-7-5-7-9.abc (3339) tune 1</title>
<!-- Creator: abcm2ps-8.14.15 -->
<!-- CreationDate: May 19, 2025 11:34 -->
<!-- CommandLine: ./KAnhC30-11-6-9-5-7-7-11-8-10-12-8-9-7-5-7-9.abc -O ./KAnhC30-11-6-9-5-7-7-11-8-10-12-8-9-7-5-7-9.svg -g -->
<rect width="100%" height="100%" fill="white"/>
<g stroke-width="0.70" transform="scale(0.867)">
<!-- title: 11-6-9-5-7-7-11-8-10-12-8-9-7-5-7-9 -->
</g>
<g stroke-width="0.70" transform="scale(0.867)" style="font:20.00px Times">
<text x="460.19" y="22.00" text-anchor="middle">11-6-9-5-7-7-11-8-10-12-8-9-7-5-7-9</text>
</g>
<g stroke-width="0.70" transform="scale(0.867)" style="font:20.00px Times">
<!-- subtitle: $1K.AnhC30::85:150:40:35:147:27:78:115:93:79:72:84:128:32:109:127::$0 -->
</g>
<g stroke-width="0.70" transform="scale(0.867)" style="font:bold 8.00px Courier">
<text x="460.19" y="41.80" text-anchor="middle">K.AnhC30::85:150:40:35:147:27:78:115:93:79:72:84:128:32:109:127::</text>
</g>
<g stroke-width="0.70" transform="scale(0.867)" style="font:bold 8.00px Courier">
<!-- subtitle: $1Perm. No.: 333915312285378$0 -->
<text x="460.19" y="60.80" text-anchor="middle">Perm. No.: 333915312285378</text>
</g>
<g stroke-width="0.70" transform="scale(0.607)" style="font:bold 8.00px Courier">
<defs>
<ellipse id="hd" rx="4.1" ry="2.9"
	transform="rotate(-20)" class="fill"/>
</defs>
<use x="136.41" y="121.29" xlink:href="#hd"/>
<path d="M139.91 121.29v-21.00" class="stroke"/>
<path class="fill"
	d="M139.91 100.29c0.6 5.6 9.6 9 5.6 18.4
	1.6 -6 -1.3 -11.6 -5.6 -12.8
"/>
</g>
<g stroke-width="0.70" transform="scale(0.867)" style="font:bold 15.00px Times">
<text x="104.59" y="87.00">= 128</text>
<path class="stroke" stroke-width="1"
	d="M34.89 183.00v-82.00"/>
<path class="fill"
	d="M29.89 98.00
	c10.5 1 12 -4.5 12 -3.5c0 1 -3.5 5.5 -8.5 5.5
	v84.00
	c5 0 8.5 4.5 8.5 5.5c0 1 -1.5 -4.5 -12 -3.5"/>
<defs>
<g id="rdots" class="fill">
	<circle cx="0" cy="-9" r="1.2"/>
	<circle cx="0" cy="-15" r="1.2"/>
</g>
</defs>
<use x="93.89" y="125.00" xlink:href="#rdots"/>
<path class="stroke" stroke-width="1"
	d="M88.89 125.00v-24.00"/>
<path class="stroke" stroke-width="3"
	d="M84.39 125.00v-24.00"/>
<use x="93.89" y="183.00" xlink:href="#rdots"/>
<path class="stroke" stroke-width="1"
	d="M88.89 183.00v-58.00"/>
<path class="stroke" stroke-width="3"
	d="M84.39 183.00v-58.00"/>
<path class="stroke" stroke-width="1"
	d="M179.99 125.00v-24.00"/>
<path class="stroke" stroke-width="1"
	d="M179.99 183.00v-58.00"/>
<path class="stroke" stroke-width="1"
	d="M281.99 125.00v-24.00"/>
<path class="stroke" stroke-width="1"
	d="M281.99 183.00v-58.00"/>
<path class="stroke" stroke-width="1"
	d="M384.09 125.00v-24.00"/>
<path class="stroke" stroke-width="1"
	d="M384.09 183.00v-58.00"/>
<path class="stroke" stroke-width="1"
	d="M485.39 125.00v-24.00"/>
<path class="stroke" stroke-width="1"
	d="M485.39 183.00v-58.00"/>
<path class="stroke" stroke-width="1"
	d="M594.49 125.00v-24.00"/>
<path class="stroke" stroke-width="1"
	d="M594.49 183.00v-58.00"/>
<path class="stroke" stroke-width="1"
	d="M705.79 125.00v-24.00"/>
<path class="stroke" stroke-width="1"
	d="M705.79 183.00v-58.00"/>
<path class="stroke" stroke-width="1"
	d="M798.19 125.00v-24.00"/>
<path class="stroke" stroke-width="1"
	d="M798.19 183.00v-58.00"/>
<path class="stroke" stroke-width="3"
	d="M883.89 125.00v-24.00"/>
<path class="stroke" stroke-width="1"
	d="M878.39 125.00v-24.00"/>
<use x="874.39" y="125.00" xlink:href="#rdots"/>
<path class="stroke" stroke-width="3"
	d="M883.89 183.00v-58.00"/>
<path class="stroke" stroke-width="1"
	d="M878.39 183.00v-58.00"/>
<use x="874.39" y="183.00" xlink:href="#rdots"/>
<path d="m34.89 125.00
	h850.50
	M34.89 119.00
	h850.50
	M34.89 113.00
	h850.50
	M34.89 107.00
	h850.50
	M34.89 101.00
	h850.50
	" class="stroke"/>
<path d="m34.89 183.00
	h850.50
	M34.89 177.00
	h850.50
	M34.89 171.00
	h850.50
	M34.89 165.00
	h850.50
	M34.89 159.00
	h850.50
	" class="stroke"/>
</g>
<g stroke-width="0.70" transform="scale(0.867)" style="font:13.00px Times">
<text x="803.19" y="86.40">1</text>
<path class="stroke"
	d="M799.19 75.00m0 20v-20h78.20v20"/>
<defs>
<path id="utclef" class="fill" d="m-50 -90
	c-72 -41 -72 -158 52 -188
	150 -10 220 188 90 256
	-114 52 -275 0 -293 -136
	-15 -181 93 -229 220 -334
	88 -87 79 -133 62 -210
	-51 33 -94 105 -89 186
	17 267 36 374 49 574
	6 96 -19 134 -77 135
	-80 1 -126 -93 -61 -133
	85 -41 133 101 31 105
	23 17 92 37 90 -92
	-10 -223 -39 -342 -50 -617
	0 -90 0 -162 96 -232
	56 72 63 230 22 289
	-74 106 -257 168 -255 316
	9 153 148 185 252 133
	86 -65 29 -192 -80 -176
	-71 12 -105 67 -59 124"/>
<use id="tclef" transform="translate(0,6) scale(0.045)"
	xlink:href="#utclef"/>
</defs>
<use x="46.89" y="119.00" xlink:href="#tclef"/>
<g style="font:bold 16px serif"
	transform="translate(65.39,124.50) scale(1.2,1)">
	<text text-anchor="middle">4</text>
	<text y="-12" text-anchor="middle">2</text>
</g>
<path class="fill"
	d="M103.59 123.50l25.40 2.80v-3.20l-25.40 -2.80"/>
<path class="fill"
	d="M117.69 120.00l10.90 1.20v-3.20l-10.90 -1.20"/>
<use x="107.39" y="98.00" xlink:href="#hd"/>
<path d="M103.89 98.00v24.50" class="stroke"/>
<use x="121.19" y="98.00" xlink:href="#hd"/>
<path d="M117.69 98.00v26.00" class="stroke"/>
<use x="132.09" y="104.00" xlink:href="#hd"/>
<path d="M128.59 104.00v21.20" class="stroke"/>
<path class="fill"
	d="M139.89 133.70l25.40 -2.80v-3.20l-25.40 2.80"/>
<path class="fill"
	d="M154.09 127.20l10.90 -1.20v-3.20l-10.90 1.20"/>
<use x="143.79" y="110.00" xlink:href="#hd"/>
<path d="M140.29 110.00v22.70" class="stroke"/>
<use x="157.59" y="110.00" xlink:href="#hd"/>
<path d="M154.09 110.00v21.20" class="stroke"/>
<use x="168.49" y="104.00" xlink:href="#hd"/>
<path d="M164.99 104.00v26.00" class="stroke"/>
<path class="fill"
	d="M189.59 120.00l22.50 4.00v-3.20l-22.50 -4.00"/>
<use x="193.49" y="98.00" xlink:href="#hd"/>
<path d="M189.99 98.00v21.10" class="stroke"/>
<use x="215.29" y="104.00" xlink:href="#hd"/>
<path d="M211.79 104.00v18.90" class="stroke"/>
<path class="fill"
	d="M233.99 133.00l33.40 0.00v-3.20l-33.40 -0.00"/>
<path class="fill"
	d="M234.29 128.00l32.70 0.00v-3.20l-32.70 -0.00"/>
<use x="237.79" y="110.00" xlink:href="#hd"/>
<path d="M234.29 110.00v22.00" class="stroke"/>
<use x="248.69" y="104.00" xlink:href="#hd"/>
<path d="M245.19 104.00v28.00" class="stroke"/>
<use x="259.59" y="98.00" xlink:href="#hd"/>
<path d="M256.09 98.00v34.00" class="stroke"/>
<use x="270.49" y="104.00" xlink:href="#hd"/>
<path d="M266.99 104.00v28.00" class="stroke"/>
<path class="fill"
	d="M291.69 126.30l33.40 5.90v-3.20l-33.40 -5.90"/>
<path class="fill"
	d="M291.99 121.40l32.70 5.80v-3.20l-32.70 -5.80"/>
<use x="295.49" y="101.00" xlink:href="#hd"/>
<path d="M291.99 101.00v24.40" class="stroke"/>
<use x="306.39" y="104.00" xlink:href="#hd"/>
<path d="M302.89 104.00v23.30" class="stroke"/>
<use x="317.29" y="107.00" xlink:href="#hd"/>
<path d="M313.79 107.00v22.30" class="stroke"/>
<use x="328.19" y="110.00" xlink:href="#hd"/>
<path d="M324.69 110.00v21.20" class="stroke"/>
<path class="fill"
	d="M336.09 133.00l33.40 0.00v-3.20l-33.40 -0.00"/>
<path class="fill"
	d="M336.39 128.00l32.70 0.00v-3.20l-32.70 -0.00"/>
<use x="339.89" y="113.00" xlink:href="#hd"/>
<path d="M336.39 113.00v19.00" class="stroke"/>
<use x="350.79" y="110.00" xlink:href="#hd"/>
<path d="M347.29 110.00v22.00" class="stroke"/>
<use x="361.69" y="107.00" xlink:href="#hd"/>
<path d="M358.19 107.00v25.00" class="stroke"/>
<use x="372.59" y="113.00" xlink:href="#hd"/>
<path d="M369.09 113.00v19.00" class="stroke"/>
<path class="fill"
	d="M393.69 133.00l33.40 0.00v-3.20l-33.40 -0.00"/>
<path class="fill"
	d="M394.09 128.00l32.70 0.00v-3.20l-32.70 -0.00"/>
<use x="397.59" y="110.00" xlink:href="#hd"/>
<path d="M394.09 110.00v22.00" class="stroke"/>
<use x="408.49" y="107.00" xlink:href="#hd"/>
<path d="M404.99 107.00v25.00" class="stroke"/>
<use x="419.39" y="104.00" xlink:href="#hd"/>
<path d="M415.89 104.00v28.00" class="stroke"/>
<use x="430.29" y="107.00" xlink:href="#hd"/>
<path d="M426.79 107.00v25.00" class="stroke"/>
<path class="fill"
	d="M444.29 87.80l33.40 0.00v3.20l-33.40 -0.00"/>
<path class="fill"
	d="M444.69 92.80l32.70 0.00v3.20l-32.70 -0.00"/>
<use x="441.19" y="110.00" xlink:href="#hd"/>
<path d="M444.69 110.00v-21.20" class="stroke"/>
<use x="452.09" y="125.00" xlink:href="#hd"/>
<path d="M455.59 125.00v-36.20" class="stroke"/>
<use x="462.99" y="119.00" xlink:href="#hd"/>
<path d="M466.49 119.00v-30.20" class="stroke"/>
<use x="473.89" y="110.00" xlink:href="#hd"/>
<path d="M477.39 110.00v-21.20" class="stroke"/>
<path class="fill"
	d="M494.99 129.30l40.50 -6.10v-3.20l-40.50 6.10"/>
<path class="fill"
	d="M495.39 124.20l39.80 -6.00v-3.20l-39.80 6.00"/>
<use x="498.89" y="107.00" xlink:href="#hd"/>
<path d="M495.39 107.00v21.20" class="stroke"/>
<use x="509.79" y="104.00" xlink:href="#hd"/>
<path d="M506.29 104.00v22.60" class="stroke"/>
<use x="527.79" y="101.00" xlink:href="#hd"/>
<defs>
<path id="usharp" class="fill" d="
	m136 -702
	v890
	h32
	v-890
	m128 840
	h32
	v-888
	h-32
	m-232 286
	v116
	l338 -96
	v-116
	m-338 442
	v116
	l338 -98
	v-114"/>
<use id="sh0" transform="translate(-4,5) scale(0.018)"
	xlink:href="#usharp"/>
</defs>
<use x="518.79" y="101.00" xlink:href="#sh0"/>
<path d="M524.29 101.00v22.80" class="stroke"/>
<use x="538.69" y="98.00" xlink:href="#hd"/>
<path d="M535.19 98.00v24.20" class="stroke"/>
<path class="fill"
	d="M546.49 124.20l33.40 5.00v-3.20l-33.40 -5.00"/>
<path class="fill"
	d="M546.79 119.30l32.70 4.90v-3.20l-32.70 -4.90"/>
<defs>
<path id="hl" class="stroke" d="m-6 0h12"/>
</defs>
<use x="550.29" y="95.00" xlink:href="#hl"/>
<use x="550.29" y="95.00" xlink:href="#hd"/>
<path d="M546.79 95.00v28.30" class="stroke"/>
<use x="561.19" y="101.00" xlink:href="#hd"/>
<path d="M557.69 101.00v23.90" class="stroke"/>
<use x="572.09" y="104.00" xlink:href="#hd"/>
<path d="M568.59 104.00v22.60" class="stroke"/>
<use x="582.99" y="107.00" xlink:href="#hd"/>
<path d="M579.49 107.00v21.20" class="stroke"/>
<defs>
<path id="ghl" class="stroke" d="m-3.5 0h7"/>
</defs>
<use x="609.99" y="95.00" xlink:href="#ghl"/>
<defs>
<path id="ghd" class="fill" d="m2.2 -1.5
	c-1.32 -2.31 -5.94 0.33 -4.62 2.64
	1.32 2.31 5.94 -0.33 4.62 -2.64"/>
</defs>
<use x="609.99" y="95.00" xlink:href="#ghd"/>
<path d="M612.29 95.00v-16.20" class="stroke"/>
<path class="fill"
	d="M612.29 78.80c1 3.2 5.6 2.8 3.2 8
	1.4 -4.8 -2.4 -5.4 -3.2 -5.2
M612.29 82.30c1 3.2 5.6 2.8 3.2 8
	1.4 -4.8 -2.4 -5.4 -3.2 -5.2
"/>
<path class="stroke"
	d="M609.99 100.00c1.20 3.00 4.80 4.80 6.00 3.00"/>
<path class="fill"
	d="M617.19 125.20l29.60 0.00v-3.20l-29.60 -0.00"/>
<path class="fill"
	d="M635.49 120.20l10.90 0.00v-3.20l-10.90 -0.00"/>
<use x="620.99" y="98.00" xlink:href="#hd"/>
<path d="M617.49 98.00v26.20" class="stroke"/>
<use x="638.99" y="101.00" xlink:href="#hd"/>
<use x="629.99" y="101.00" xlink:href="#sh0"/>
<path d="M635.49 101.00v23.20" class="stroke"/>
<use x="649.89" y="98.00" xlink:href="#hd"/>
<path d="M646.39 98.00v26.20" class="stroke"/>
<path class="fill"
	d="M657.79 131.40l33.40 3.80v-3.20l-33.40 -3.80"/>
<path class="fill"
	d="M658.09 126.50l32.70 3.70v-3.20l-32.70 -3.70"/>
<use x="661.59" y="107.00" xlink:href="#hd"/>
<path d="M658.09 107.00v23.50" class="stroke"/>
<use x="672.49" y="98.00" xlink:href="#hd"/>
<path d="M668.99 98.00v33.70" class="stroke"/>
<use x="683.39" y="107.00" xlink:href="#hd"/>
<path d="M679.89 107.00v26.00" class="stroke"/>
<use x="694.29" y="113.00" xlink:href="#hd"/>
<path d="M690.79 113.00v21.20" class="stroke"/>
<path class="fill"
	d="M715.49 127.70l25.40 -2.80v-3.20l-25.40 2.80"/>
<path class="fill"
	d="M729.59 121.20l10.90 -1.20v-3.20l-10.90 1.20"/>
<use x="719.29" y="104.00" xlink:href="#hd"/>
<path d="M715.79 104.00v22.70" class="stroke"/>
<use x="733.09" y="104.00" xlink:href="#hd"/>
<path d="M729.59 104.00v21.20" class="stroke"/>
<use x="743.99" y="98.00" xlink:href="#hd"/>
<path d="M740.49 98.00v26.00" class="stroke"/>
<path class="fill"
	d="M758.19 124.70l25.40 -2.80v-3.20l-25.40 2.80"/>
<path class="fill"
	d="M772.29 118.20l10.90 -1.20v-3.20l-10.90 1.20"/>
<use x="761.99" y="101.00" xlink:href="#hd"/>
<use x="752.99" y="101.00" xlink:href="#sh0"/>
<path d="M758.49 101.00v22.70" class="stroke"/>
<use x="775.79" y="101.00" xlink:href="#hd"/>
<path d="M772.29 101.00v21.20" class="stroke"/>
<use x="786.69" y="95.00" xlink:href="#hl"/>
<use x="786.69" y="95.00" xlink:href="#hd"/>
<path d="M783.19 95.00v26.00" class="stroke"/>
<use x="811.69" y="98.00" xlink:href="#hd"/>
<path d="M808.19 98.00v40.00" class="stroke"/>
<use x="811.69" y="119.00" xlink:href="#hd"/>
<use x="811.69" y="113.00" xlink:href="#hd"/>
<defs>
<path id="r4" class="fill" d="m-1 -8.5
	l3.6 5.1 -2.1 5.2 2.2 4.3
	c-2.6 -2.3 -5.1 0 -2.4 2.6
	-4.8 -3 -1.5 -6.9 1.4 -4.1
	l-3.1 -4.5 1.9 -5.1 -1.5 -3.5"/>
</defs>
<use x="832.19" y="113.00" xlink:href="#r4"/>
<defs>
<path id="ubclef" class="fill" d="m-200 -87
	c124 -35 222 -78 254 -236
	43 -228 -167 -246 -192 -103
	59 -80 157 22 92 78
	-62 47 -115 -22 -106 -88
	21 -141 270 -136 274 52
	-1 175 -106 264 -322 297
	m357 -250
	c0 -36 51 -34 51 0
	0 37 -51 36 -51 0
	m-2 -129
	c0 -36 51 -34 51 0
	0 38 -51 37 -51 0"/>
<use id="bclef" transform="translate(0,18) scale(0.045)"
	xlink:href="#ubclef"/>
</defs>
<use x="46.89" y="165.00" xlink:href="#bclef"/>
<g style="font:bold 16px serif"
	transform="translate(65.39,182.50) scale(1.2,1)">
	<text text-anchor="middle">4</text>
	<text y="-12" text-anchor="middle">2</text>
</g>
<use x="107.39" y="174.00" xlink:href="#hd"/>
<path d="M110.89 174.00v-21.00" class="stroke"/>
<use x="143.79" y="171.00" xlink:href="#r4"/>
<path class="fill"
	d="M189.59 196.20l33.40 0.00v-3.20l-33.40 -0.00"/>
<path class="fill"
	d="M189.99 191.20l32.70 0.00v-3.20l-32.70 -0.00"/>
<use x="193.49" y="174.00" xlink:href="#hd"/>
<path d="M189.99 174.00v21.20" class="stroke"/>
<use x="204.39" y="168.00" xlink:href="#hd"/>
<path d="M200.89 168.00v27.20" class="stroke"/>
<use x="215.29" y="162.00" xlink:href="#hd"/>
<path d="M211.79 162.00v33.20" class="stroke"/>
<use x="226.19" y="168.00" xlink:href="#hd"/>
<path d="M222.69 168.00v27.20" class="stroke"/>
<use x="237.79" y="174.00" xlink:href="#hd"/>
<path d="M241.29 174.00v-21.00" class="stroke"/>
<path class="fill"
	d="M298.69 142.80l66.80 8.50v3.20l-66.80 -8.50"/>
<use x="295.49" y="162.00" xlink:href="#hd"/>
<path d="M298.99 162.00v-18.20" class="stroke"/>
<use x="317.29" y="183.00" xlink:href="#hd"/>
<path d="M320.79 183.00v-36.40" class="stroke"/>
<use x="339.89" y="183.00" xlink:href="#hd"/>
<path d="M343.39 183.00v-33.60" class="stroke"/>
<use x="361.69" y="183.00" xlink:href="#hd"/>
<path d="M365.19 183.00v-30.80" class="stroke"/>
<use x="397.59" y="174.00" xlink:href="#hd"/>
<path d="M401.09 174.00v-21.00" class="stroke"/>
<use x="441.19" y="189.00" xlink:href="#hl"/>
<use x="441.19" y="195.00" xlink:href="#hl"/>
<use x="441.19" y="195.00" xlink:href="#hd"/>
<path d="M444.69 195.00v-24.00" class="stroke"/>
<use x="498.89" y="171.00" xlink:href="#hd"/>
<path d="M502.39 171.00v-21.00" class="stroke"/>
<use x="550.29" y="165.00" xlink:href="#hd"/>
<use x="541.29" y="165.00" xlink:href="#sh0"/>
<path d="M546.79 165.00v21.00" class="stroke"/>
<use x="620.99" y="162.00" xlink:href="#hd"/>
<path d="M617.49 162.00v34.00" class="stroke"/>
<use x="620.99" y="177.00" xlink:href="#hd"/>
<use x="661.59" y="177.00" xlink:href="#hd"/>
<path d="M665.09 177.00v-21.00" class="stroke"/>
<use x="719.29" y="174.00" xlink:href="#hd"/>
<path d="M722.79 174.00v-21.00" class="stroke"/>
<use x="761.99" y="171.00" xlink:href="#hd"/>
<path d="M765.49 171.00v-21.00" class="stroke"/>
<use x="811.69" y="183.00" xlink:href="#hd"/>
<path d="M815.19 183.00v-21.00" class="stroke"/>
<path class="fill"
	d="M828.39 187.30l33.40 5.90v-3.20l-33.40 -5.90"/>
<path class="fill"
	d="M828.69 182.40l32.70 5.80v-3.20l-32.70 -5.80"/>
<use x="832.19" y="162.00" xlink:href="#hd"/>
<path d="M828.69 162.00v24.40" class="stroke"/>
<use x="843.09" y="165.00" xlink:href="#hd"/>
<path d="M839.59 165.00v23.30" class="stroke"/>
<use x="853.99" y="168.00" xlink:href="#hd"/>
<path d="M850.49 168.00v22.30" class="stroke"/>
<use x="864.89" y="171.00" xlink:href="#hd"/>
<path d="M861.39 171.00v21.20" class="stroke"/>
</g>
<g stroke-width="0.70" transform="scale(0.867)" style="font:13.00px Times">
<path class="stroke" stroke-width="1"
	d="M34.89 317.00v-83.00"/>
<path class="fill"
	d="M29.89 231.00
	c10.5 1 12 -4.5 12 -3.5c0 1 -3.5 5.5 -8.5 5.5
	v85.00
	c5 0 8.5 4.5 8.5 5.5c0 1 -1.5 -4.5 -12 -3.5"/>
<use x="151.39" y="258.00" xlink:href="#rdots"/>
<path class="stroke" stroke-width="1"
	d="M146.39 258.00v-24.00"/>
<path class="stroke" stroke-width="3"
	d="M141.89 258.00v-24.00"/>
<use x="151.39" y="317.00" xlink:href="#rdots"/>
<path class="stroke" stroke-width="1"
	d="M146.39 317.00v-59.00"/>
<path class="stroke" stroke-width="3"
	d="M141.89 317.00v-59.00"/>
<path class="stroke" stroke-width="1"
	d="M260.19 258.00v-24.00"/>
<path class="stroke" stroke-width="1"
	d="M260.19 317.00v-59.00"/>
<path class="stroke" stroke-width="1"
	d="M346.49 258.00v-24.00"/>
<path class="stroke" stroke-width="1"
	d="M346.49 317.00v-59.00"/>
<path class="stroke" stroke-width="1"
	d="M448.19 258.00v-24.00"/>
<path class="stroke" stroke-width="1"
	d="M448.19 317.00v-59.00"/>
<path class="stroke" stroke-width="1"
	d="M556.99 258.00v-24.00"/>
<path class="stroke" stroke-width="1"
	d="M556.99 317.00v-59.00"/>
<path class="stroke" stroke-width="1"
	d="M660.39 258.00v-24.00"/>
<path class="stroke" stroke-width="1"
	d="M660.39 317.00v-59.00"/>
<path class="stroke" stroke-width="1"
	d="M727.59 258.00v-24.00"/>
<path class="stroke" stroke-width="1"
	d="M727.59 317.00v-59.00"/>
<path class="stroke" stroke-width="1"
	d="M830.99 258.00v-24.00"/>
<path class="stroke" stroke-width="1"
	d="M830.99 317.00v-59.00"/>
<path class="stroke" stroke-width="3"
	d="M883.89 258.00v-24.00"/>
<path class="stroke" stroke-width="1"
	d="M878.39 258.00v-24.00"/>
<use x="874.39" y="258.00" xlink:href="#rdots"/>
<path class="stroke" stroke-width="3"
	d="M883.89 317.00v-59.00"/>
<path class="stroke" stroke-width="1"
	d="M878.39 317.00v-59.00"/>
<use x="874.39" y="317.00" xlink:href="#rdots"/>
<path d="m34.89 258.00
	h850.50
	M34.89 252.00
	h850.50
	M34.89 246.00
	h850.50
	M34.89 240.00
	h850.50
	M34.89 234.00
	h850.50
	" class="stroke"/>
<path d="m34.89 317.00
	h850.50
	M34.89 311.00
	h850.50
	M34.89 305.00
	h850.50
	M34.89 299.00
	h850.50
	M34.89 293.00
	h850.50
	" class="stroke"/>
<text x="70.89" y="219.40">2</text>
<path class="stroke"
	d="M66.89 208.00m0 20v-20h73.50v20"/>
<use x="46.89" y="252.00" xlink:href="#tclef"/>
<use x="79.39" y="231.00" xlink:href="#hd"/>
<path d="M75.89 231.00v40.00" class="stroke"/>
<use x="79.39" y="252.00" xlink:href="#hd"/>
<use x="79.39" y="246.00" xlink:href="#hd"/>
<use x="99.39" y="246.00" xlink:href="#r4"/>
<use x="164.89" y="240.00" xlink:href="#hd"/>
<path d="M161.39 240.00v21.00" class="stroke"/>
<path class="fill"
	d="M212.39 250.00l22.40 4.00v-3.20l-22.40 -4.00"/>
<use x="216.19" y="228.00" xlink:href="#hl"/>
<use x="216.19" y="228.00" xlink:href="#hd"/>
<path d="M212.69 228.00v21.10" class="stroke"/>
<use x="237.89" y="234.00" xlink:href="#hd"/>
<use x="228.89" y="234.00" xlink:href="#sh0"/>
<path d="M234.39 234.00v18.90" class="stroke"/>
<path class="fill"
	d="M269.89 254.00l25.50 0.00v-3.20l-25.50 -0.00"/>
<path class="fill"
	d="M284.19 249.00l10.80 0.00v-3.20l-10.80 -0.00"/>
<use x="273.69" y="231.00" xlink:href="#hd"/>
<path d="M270.19 231.00v22.00" class="stroke"/>
<use x="287.69" y="228.00" xlink:href="#hl"/>
<use x="287.69" y="225.00" xlink:href="#hd"/>
<path d="M284.19 225.00v28.00" class="stroke"/>
<use x="298.49" y="231.00" xlink:href="#hd"/>
<path d="M294.99 231.00v22.00" class="stroke"/>
<path class="fill"
	d="M306.29 260.00l25.50 0.00v-3.20l-25.50 -0.00"/>
<path class="fill"
	d="M320.59 255.00l10.80 0.00v-3.20l-10.80 -0.00"/>
<use x="310.19" y="240.00" xlink:href="#hd"/>
<path d="M306.69 240.00v19.00" class="stroke"/>
<use x="324.09" y="231.00" xlink:href="#hd"/>
<path d="M320.59 231.00v28.00" class="stroke"/>
<use x="334.99" y="240.00" xlink:href="#hd"/>
<path d="M331.49 240.00v19.00" class="stroke"/>
<use x="359.99" y="237.00" xlink:href="#hd"/>
<path d="M356.49 237.00v21.00" class="stroke"/>
<path class="fill"
	d="M400.29 264.00l22.40 0.00v-3.20l-22.40 -0.00"/>
<use x="404.09" y="243.00" xlink:href="#hd"/>
<path d="M400.59 243.00v20.00" class="stroke"/>
<use x="425.79" y="243.00" xlink:href="#hd"/>
<path d="M422.29 243.00v20.00" class="stroke"/>
<path class="fill"
	d="M457.79 262.00l22.40 4.00v-3.20l-22.40 -4.00"/>
<use x="461.69" y="240.00" xlink:href="#hd"/>
<path d="M458.19 240.00v21.10" class="stroke"/>
<use x="483.39" y="246.00" xlink:href="#hd"/>
<path d="M479.89 246.00v18.90" class="stroke"/>
<use x="505.89" y="252.00" xlink:href="#hd"/>
<path d="M509.39 252.00v-21.00" class="stroke"/>
<use x="570.49" y="252.00" xlink:href="#hd"/>
<path d="M573.99 252.00v-21.00" class="stroke"/>
<path class="fill"
	d="M573.99 231.00c0.6 5.6 9.6 9 5.6 18.4
	1.6 -6 -1.3 -11.6 -5.6 -12.8
"/>
<use x="593.09" y="243.00" xlink:href="#hd"/>
<path d="M589.59 243.00v21.00" class="stroke"/>
<use x="638.09" y="237.00" xlink:href="#hd"/>
<path d="M634.59 237.00v21.00" class="stroke"/>
<path class="fill"
	d="M634.59 258.00c0.6 -5.6 9.6 -9 5.6 -18.4
	1.6 6 -1.3 11.6 -5.6 12.8
"/>
<path class="fill"
	d="M670.09 261.00l42.50 0.00v-3.20l-42.50 -0.00"/>
<use x="673.89" y="243.00" xlink:href="#hd"/>
<path d="M670.39 243.00v17.00" class="stroke"/>
<use x="687.79" y="231.00" xlink:href="#hd"/>
<path d="M684.29 231.00v29.00" class="stroke"/>
<use x="701.79" y="237.00" xlink:href="#hd"/>
<path d="M698.29 237.00v23.00" class="stroke"/>
<use x="715.69" y="243.00" xlink:href="#hd"/>
<path d="M712.19 243.00v17.00" class="stroke"/>
<use x="741.09" y="240.00" xlink:href="#hd"/>
<path d="M737.59 240.00v21.00" class="stroke"/>
<path class="fill"
	d="M737.59 261.00c0.6 -5.6 9.6 -9 5.6 -18.4
	1.6 6 -1.3 11.6 -5.6 12.8
"/>
<use x="763.59" y="237.00" xlink:href="#hd"/>
<path d="M760.09 237.00v21.00" class="stroke"/>
<use x="808.59" y="246.00" xlink:href="#hd"/>
<path d="M805.09 246.00v21.00" class="stroke"/>
<path class="fill"
	d="M805.09 267.00c0.6 -5.6 9.6 -9 5.6 -18.4
	1.6 6 -1.3 11.6 -5.6 12.8
"/>
<use x="844.49" y="243.00" xlink:href="#hd"/>
<path d="M840.99 243.00v21.00" class="stroke"/>
<use x="864.39" y="264.00" xlink:href="#hl"/>
<use x="864.39" y="264.00" xlink:href="#hd"/>
<path d="M867.89 264.00v-21.00" class="stroke"/>
<use x="46.89" y="299.00" xlink:href="#bclef"/>
<use x="79.39" y="317.00" xlink:href="#hd"/>
<path d="M82.89 317.00v-21.00" class="stroke"/>
<path class="fill"
	d="M102.49 291.70l33.20 -5.90v3.20l-33.20 5.90"/>
<path class="fill"
	d="M102.89 296.60l32.50 -5.80v3.20l-32.50 5.80"/>
<use x="99.39" y="317.00" xlink:href="#hd"/>
<path d="M102.89 317.00v-24.40" class="stroke"/>
<use x="110.19" y="314.00" xlink:href="#hd"/>
<path d="M113.69 314.00v-23.30" class="stroke"/>
<use x="120.99" y="311.00" xlink:href="#hd"/>
<path d="M124.49 311.00v-22.30" class="stroke"/>
<use x="131.89" y="308.00" xlink:href="#hd"/>
<path d="M135.39 308.00v-21.20" class="stroke"/>
<path class="fill"
	d="M160.99 327.20l40.40 -3.90v-3.20l-40.40 3.90"/>
<path class="fill"
	d="M161.39 322.20l39.70 -3.90v-3.20l-39.70 3.90"/>
<use x="164.89" y="305.00" xlink:href="#hd"/>
<path d="M161.39 305.00v21.20" class="stroke"/>
<use x="182.89" y="299.00" xlink:href="#hd"/>
<use x="173.89" y="299.00" xlink:href="#sh0"/>
<path d="M179.39 299.00v25.40" class="stroke"/>
<use x="193.69" y="293.00" xlink:href="#hd"/>
<path d="M190.19 293.00v30.40" class="stroke"/>
<use x="204.59" y="299.00" xlink:href="#hd"/>
<path d="M201.09 299.00v23.30" class="stroke"/>
<path class="fill"
	d="M212.39 330.20l33.20 0.00v-3.20l-33.20 -0.00"/>
<path class="fill"
	d="M212.69 325.20l32.50 0.00v-3.20l-32.50 -0.00"/>
<use x="216.19" y="308.00" xlink:href="#hd"/>
<path d="M212.69 308.00v21.20" class="stroke"/>
<use x="227.09" y="299.00" xlink:href="#hd"/>
<path d="M223.59 299.00v30.20" class="stroke"/>
<use x="237.89" y="293.00" xlink:href="#hd"/>
<path d="M234.39 293.00v36.20" class="stroke"/>
<use x="248.69" y="308.00" xlink:href="#hd"/>
<path d="M245.19 308.00v21.20" class="stroke"/>
<use x="273.69" y="296.00" xlink:href="#hd"/>
<path d="M270.19 296.00v34.00" class="stroke"/>
<use x="273.69" y="311.00" xlink:href="#hd"/>
<use x="310.19" y="317.00" xlink:href="#hd"/>
<path d="M313.69 317.00v-21.00" class="stroke"/>
<path class="fill"
	d="M356.09 330.20l33.20 0.00v-3.20l-33.20 -0.00"/>
<path class="fill"
	d="M356.49 325.20l32.50 0.00v-3.20l-32.50 -0.00"/>
<use x="359.99" y="308.00" xlink:href="#hd"/>
<path d="M356.49 308.00v21.20" class="stroke"/>
<use x="370.79" y="302.00" xlink:href="#hd"/>
<path d="M367.29 302.00v27.20" class="stroke"/>
<use x="381.59" y="296.00" xlink:href="#hd"/>
<path d="M378.09 296.00v33.20" class="stroke"/>
<use x="392.49" y="302.00" xlink:href="#hd"/>
<path d="M388.99 302.00v27.20" class="stroke"/>
<path class="fill"
	d="M400.29 330.20l33.20 0.00v-3.20l-33.20 -0.00"/>
<path class="fill"
	d="M400.59 325.20l32.50 0.00v-3.20l-32.50 -0.00"/>
<use x="404.09" y="308.00" xlink:href="#hd"/>
<path d="M400.59 308.00v21.20" class="stroke"/>
<use x="414.99" y="296.00" xlink:href="#hd"/>
<path d="M411.49 296.00v33.20" class="stroke"/>
<use x="425.79" y="302.00" xlink:href="#hd"/>
<path d="M422.29 302.00v27.20" class="stroke"/>
<use x="436.69" y="308.00" xlink:href="#hd"/>
<path d="M433.19 308.00v21.20" class="stroke"/>
<path class="fill"
	d="M464.79 280.90l33.20 -7.20v3.20l-33.20 7.20"/>
<path class="fill"
	d="M465.19 285.80l32.50 -7.00v3.20l-32.50 7.00"/>
<use x="461.69" y="317.00" xlink:href="#hd"/>
<path d="M465.19 317.00v-35.20" class="stroke"/>
<use x="472.49" y="311.00" xlink:href="#hd"/>
<path d="M475.99 311.00v-31.50" class="stroke"/>
<use x="483.39" y="305.00" xlink:href="#hd"/>
<path d="M486.89 305.00v-27.90" class="stroke"/>
<use x="494.19" y="296.00" xlink:href="#hd"/>
<path d="M497.69 296.00v-21.20" class="stroke"/>
<path class="fill"
	d="M508.99 279.20l40.40 -5.40v3.20l-40.40 5.40"/>
<path class="fill"
	d="M509.39 284.20l39.70 -5.30v3.20l-39.70 5.30"/>
<use x="505.89" y="317.00" xlink:href="#hd"/>
<path d="M509.39 317.00v-36.80" class="stroke"/>
<use x="523.89" y="299.00" xlink:href="#hd"/>
<defs>
<path id="unat" class="fill" d="
	m96 -750
	h-32
	v716
	l32 -8
	182 -54
	v282
	h32
	v-706
	l-34 10
	-180 50
	v-290
	m0 592
	v-190
	l182 -52
	v188"/>
<use id="nt0" transform="translate(-3,5) scale(0.018)"
	xlink:href="#unat"/>
</defs>
<use x="514.89" y="299.00" xlink:href="#nt0"/>
<path d="M527.39 299.00v-21.20" class="stroke"/>
<use x="534.69" y="302.00" xlink:href="#hd"/>
<path d="M538.19 302.00v-25.60" class="stroke"/>
<use x="545.49" y="305.00" xlink:href="#hd"/>
<path d="M548.99 305.00v-30.10" class="stroke"/>
<path class="fill"
	d="M566.69 330.20l34.00 -4.10v-3.20l-34.00 4.10"/>
<path class="fill"
	d="M566.99 325.20l33.30 -4.00v-3.20l-33.30 4.00"/>
<use x="570.49" y="308.00" xlink:href="#hd"/>
<path d="M566.99 308.00v21.20" class="stroke"/>
<use x="581.39" y="296.00" xlink:href="#hd"/>
<path d="M577.89 296.00v31.90" class="stroke"/>
<use x="593.09" y="302.00" xlink:href="#hd"/>
<path d="M589.59 302.00v24.50" class="stroke"/>
<use x="603.89" y="296.00" xlink:href="#hd"/>
<path d="M600.39 296.00v29.20" class="stroke"/>
<path class="fill"
	d="M611.69 330.20l34.00 -4.10v-3.20l-34.00 4.10"/>
<path class="fill"
	d="M612.09 325.20l33.30 -4.00v-3.20l-33.30 4.00"/>
<use x="615.59" y="308.00" xlink:href="#hd"/>
<path d="M612.09 308.00v21.20" class="stroke"/>
<use x="626.39" y="296.00" xlink:href="#hd"/>
<path d="M622.89 296.00v31.90" class="stroke"/>
<use x="638.09" y="302.00" xlink:href="#hd"/>
<path d="M634.59 302.00v24.50" class="stroke"/>
<use x="648.89" y="296.00" xlink:href="#hd"/>
<path d="M645.39 296.00v29.20" class="stroke"/>
<use x="673.89" y="308.00" xlink:href="#hd"/>
<path d="M677.39 308.00v-21.00" class="stroke"/>
<use x="701.79" y="305.00" xlink:href="#r4"/>
<path class="fill"
	d="M744.29 284.10l34.00 -4.10v3.20l-34.00 4.10"/>
<path class="fill"
	d="M744.59 289.10l33.30 -4.00v3.20l-33.30 4.00"/>
<use x="741.09" y="317.00" xlink:href="#hd"/>
<path d="M744.59 317.00v-31.90" class="stroke"/>
<use x="751.99" y="305.00" xlink:href="#hd"/>
<path d="M755.49 305.00v-21.20" class="stroke"/>
<use x="763.59" y="311.00" xlink:href="#hd"/>
<path d="M767.09 311.00v-28.60" class="stroke"/>
<use x="774.49" y="305.00" xlink:href="#hd"/>
<path d="M777.99 305.00v-23.90" class="stroke"/>
<path class="fill"
	d="M789.29 284.10l34.00 -4.10v3.20l-34.00 4.10"/>
<path class="fill"
	d="M789.59 289.10l33.30 -4.00v3.20l-33.30 4.00"/>
<use x="786.09" y="317.00" xlink:href="#hd"/>
<path d="M789.59 317.00v-31.90" class="stroke"/>
<use x="796.99" y="305.00" xlink:href="#hd"/>
<path d="M800.49 305.00v-21.20" class="stroke"/>
<use x="808.59" y="311.00" xlink:href="#hd"/>
<path d="M812.09 311.00v-28.60" class="stroke"/>
<use x="819.49" y="305.00" xlink:href="#hd"/>
<path d="M822.99 305.00v-23.90" class="stroke"/>
<use x="844.49" y="308.00" xlink:href="#hd"/>
<path d="M847.99 308.00v-21.00" class="stroke"/>
<use x="864.39" y="323.00" xlink:href="#hl"/>
<use x="864.39" y="329.00" xlink:href="#hl"/>
<use x="864.39" y="329.00" xlink:href="#hd"/>
<path d="M867.89 329.00v-24.00" class="stroke"/>
</g>
</svg>
